<?xml version="1.0" encoding="iso-8859-1"?>
<!-- Generator: Adobe Illustrator 19.0.0, SVG Export Plug-In . SVG Version: 6.00 Build 0)  -->
<svg version="1.1" id="Layer_1" xmlns="http://www.w3.org/2000/svg" xmlns:xlink="http://www.w3.org/1999/xlink" x="0px" y="0px"
	 viewBox="0 0 512 512" style="enable-background:new 0 0 512 512;" xml:space="preserve">
<g>
	<g>
		<path d="M255.999,285.237c-11.362,0-20.606,9.243-20.606,20.606s9.243,20.607,20.606,20.607s20.606-9.244,20.606-20.607
			S267.361,285.237,255.999,285.237z"/>
	</g>
</g>
<g>
	<g>
		<path d="M271.216,354.564V512l123.397-222.543l-11.23-7.859c-0.502-0.351-44.131-31.572-55.546-91.712H184.17
			c-4.12,21.906-12.956,42.399-26.464,61.162c-14.404,20.008-28.986,30.477-29.089,30.55l-11.23,7.859L240.783,512V354.564
			c-20.735-6.489-35.822-25.878-35.822-48.723c0-28.143,22.896-51.039,51.039-51.039c28.143,0,51.039,22.896,51.039,51.039
			C307.038,328.688,291.95,348.075,271.216,354.564z"/>
	</g>
</g>
<g>
	<g>
		<path d="M118.094,0v63.826c0,24.472,17.737,44.866,41.027,49.036v46.591h193.756v-46.591c23.29-4.17,41.028-24.564,41.028-49.036
			V0H118.094z"/>
	</g>
</g>
<g>
</g>
<g>
</g>
<g>
</g>
<g>
</g>
<g>
</g>
<g>
</g>
<g>
</g>
<g>
</g>
<g>
</g>
<g>
</g>
<g>
</g>
<g>
</g>
<g>
</g>
<g>
</g>
<g>
</g>
</svg>
